<svg width="20" height="20" viewBox="0 0 20 20" fill="none" xmlns="http://www.w3.org/2000/svg">
<path d="M6.00012 3.05176e-05H3.00012C1.34327 3.05176e-05 0.00012207 1.34318 0.00012207 3.00003V6.00003C0.00012207 7.65688 1.34327 9.00003 3.00012 9.00003H6.00012C7.65698 9.00003 9.00012 7.65688 9.00012 6.00003V3.00003C9.00012 1.34318 7.65698 3.05176e-05 6.00012 3.05176e-05Z" fill="#6418C3"/>
<path d="M17.0002 3.05176e-05H14.0002C12.3434 3.05176e-05 11.0002 1.34318 11.0002 3.00003V6.00003C11.0002 7.65688 12.3434 9.00003 14.0002 9.00003H17.0002C18.6571 9.00003 20.0002 7.65688 20.0002 6.00003V3.00003C20.0002 1.34318 18.6571 3.05176e-05 17.0002 3.05176e-05Z" fill="#6418C3"/>
<path d="M6.00012 11.0001H3.00012C1.34327 11.0001 0.00012207 12.3432 0.00012207 14.0001V17.0001C0.00012207 18.6569 1.34327 20.0001 3.00012 20.0001H6.00012C7.65698 20.0001 9.00012 18.6569 9.00012 17.0001V14.0001C9.00012 12.3432 7.65698 11.0001 6.00012 11.0001Z" fill="#6418C3"/>
<path d="M17.0002 11.0001H14.0002C12.3434 11.0001 11.0002 12.3432 11.0002 14.0001V17.0001C11.0002 18.6569 12.3434 20.0001 14.0002 20.0001H17.0002C18.6571 20.0001 20.0002 18.6569 20.0002 17.0001V14.0001C20.0002 12.3432 18.6571 11.0001 17.0002 11.0001Z" fill="#6418C3"/>
</svg>
